<?xml version="1.0" standalone="no"?>
<!DOCTYPE svg PUBLIC "-//W3C//DTD SVG 20010904//EN"
 "http://www.w3.org/TR/2001/REC-SVG-20010904/DTD/svg10.dtd">
<svg version="1.0" xmlns="http://www.w3.org/2000/svg"
 width="1280.000000pt" height="859.000000pt" viewBox="0 0 1280.000000 859.000000"
 preserveAspectRatio="xMidYMid meet">
<metadata>
Created by potrace 1.15, written by Peter Selinger 2001-2017
</metadata>
<g transform="translate(0.000000,859.000000) scale(0.100000,-0.100000)"
fill="#000000" stroke="none">
<path d="M1950 7319 c-1059 -699 -1929 -1275 -1934 -1279 -7 -7 419 -656 459
-698 10 -11 298 174 1515 972 826 542 1503 986 1505 986 1 0 188 -443 416
-985 228 -542 419 -983 424 -981 6 2 678 445 1494 985 816 540 1485 980 1486
979 2 -2 190 -443 418 -981 228 -538 417 -980 420 -983 2 -3 679 437 1503 976
824 540 1502 982 1507 983 9 2 163 -360 649 -1523 100 -239 183 -437 185 -439
3 -4 782 337 795 348 3 3 -86 222 -198 486 -341 799 -642 1506 -839 1970 -103
242 -189 443 -191 447 -3 4 -150 -89 -327 -205 -2476 -1633 -2669 -1760 -2677
-1747 -4 7 -194 451 -421 986 -261 615 -416 971 -423 966 -6 -3 -677 -444
-1491 -980 -814 -536 -1485 -976 -1491 -979 -13 -5 34 -111 -446 1007 -225
525 -411 956 -412 957 -1 1 -868 -570 -1926 -1268z"/>
<path d="M1945 1994 c-1056 -696 -1926 -1268 -1933 -1273 -9 -5 52 -105 224
-364 228 -344 238 -357 258 -344 419 277 2974 1951 2982 1954 7 2 40 -63 79
-154 732 -1717 768 -1802 775 -1805 3 -2 672 437 1485 976 814 538 1485 980
1491 983 6 2 20 -18 31 -44 103 -241 322 -758 413 -973 62 -146 145 -341 185
-435 39 -93 105 -248 145 -343 71 -167 74 -172 94 -158 419 276 2974 1950
2982 1953 6 2 14 -2 17 -9 2 -7 88 -211 189 -453 102 -242 285 -680 408 -973
131 -313 228 -531 234 -528 138 59 779 346 783 350 3 3 -24 74 -60 158 -35 84
-156 367 -267 628 -111 261 -260 610 -330 775 -70 165 -205 482 -300 705 -232
545 -269 633 -274 637 -3 3 -2207 -1443 -2890 -1896 -60 -39 -110 -70 -112
-68 -2 1 -190 443 -418 981 -229 538 -417 981 -420 983 -2 2 -676 -439 -1497
-981 -822 -541 -1497 -981 -1501 -978 -3 4 -194 444 -423 977 -229 534 -419
973 -423 977 -4 4 -871 -562 -1927 -1258z"/>
</g>
</svg>
