<?xml version="1.0" standalone="no"?>
<!DOCTYPE svg PUBLIC "-//W3C//DTD SVG 20010904//EN"
 "http://www.w3.org/TR/2001/REC-SVG-20010904/DTD/svg10.dtd">
<svg version="1.0" xmlns="http://www.w3.org/2000/svg"
 width="1280.000000pt" height="1215.000000pt" viewBox="0 0 1280.000000 1215.000000"
 preserveAspectRatio="xMidYMid meet">
<metadata>
Created by potrace 1.15, written by Peter Selinger 2001-2017
</metadata>
<g transform="translate(0.000000,1215.000000) scale(0.100000,-0.100000)"
fill="#000000" stroke="none">
<path d="M2025 12139 c-643 -70 -1190 -416 -1577 -999 -314 -473 -465 -1047
-445 -1695 21 -659 205 -1306 585 -2047 l95 -188 475 0 474 0 -25 43 c-328
560 -528 1077 -616 1587 -39 231 -46 319 -45 615 0 319 14 450 73 686 142 570
498 990 937 1105 123 33 332 43 463 24 174 -25 383 -111 553 -226 299 -204
606 -553 883 -1005 318 -519 655 -1260 916 -2014 411 -1184 777 -2926 989
-4705 121 -1022 170 -1822 170 -2786 l0 -534 470 0 470 0 0 393 c0 1206 80
2328 256 3587 243 1743 604 3328 1002 4401 342 920 736 1685 1130 2194 116
149 401 432 522 517 185 130 382 218 575 254 131 24 355 15 487 -19 329 -86
600 -323 783 -686 100 -200 162 -408 207 -693 19 -124 22 -183 22 -438 0 -316
-10 -430 -60 -680 -97 -487 -304 -1034 -579 -1531 -25 -45 -45 -83 -45 -85 0
-2 214 -3 477 -2 l476 3 98 195 c316 629 494 1194 561 1780 19 167 16 610 -5
779 -80 636 -316 1139 -732 1557 -294 295 -624 483 -1004 568 -181 41 -275 51
-496 51 -233 -1 -357 -15 -551 -65 -312 -81 -645 -252 -924 -476 -206 -166
-488 -466 -675 -718 -921 -1247 -1552 -3152 -1820 -5501 -36 -317 -94 -956
-95 -1037 0 -5 -36 -8 -80 -8 -44 0 -80 2 -80 4 0 2 -9 105 -20 227 -152 1693
-436 3103 -862 4289 -412 1145 -971 2085 -1557 2617 -401 364 -824 577 -1286
648 -131 20 -443 28 -570 14z"/>
</g>
</svg>
