<?xml version="1.0" standalone="no"?>
<!DOCTYPE svg PUBLIC "-//W3C//DTD SVG 20010904//EN"
 "http://www.w3.org/TR/2001/REC-SVG-20010904/DTD/svg10.dtd">
<svg version="1.0" xmlns="http://www.w3.org/2000/svg"
 width="1280.000000pt" height="1002.000000pt" viewBox="0 0 1280.000000 1002.000000"
 preserveAspectRatio="xMidYMid meet">
<metadata>
Created by potrace 1.15, written by Peter Selinger 2001-2017
</metadata>
<g transform="translate(0.000000,1002.000000) scale(0.100000,-0.100000)"
fill="#000000" stroke="none">
<path d="M6675 10013 c-302 -9 -819 -45 -1125 -78 -1654 -184 -3043 -655
-4110 -1396 -821 -570 -1289 -1245 -1412 -2034 -26 -167 -31 -546 -10 -705 83
-617 360 -1142 826 -1563 505 -456 1068 -662 1761 -644 222 6 343 20 532 63
620 139 1201 556 1577 1131 191 292 315 632 368 1003 20 146 17 603 -5 755
-60 403 -176 710 -384 1022 -242 362 -567 641 -1058 908 l-69 38 44 19 c142
61 454 162 680 222 967 255 2374 330 3685 195 1478 -151 3027 -577 4570 -1257
94 -41 189 -83 213 -93 l42 -18 0 543 0 544 -227 100 c-1924 849 -3731 1261
-5477 1250 -177 -1 -366 -3 -421 -5z m-3807 -2027 c388 -73 703 -235 985 -505
323 -310 504 -657 563 -1078 22 -161 15 -461 -15 -621 -25 -132 -83 -313 -138
-432 -142 -305 -411 -609 -718 -810 -174 -113 -417 -209 -637 -251 -142 -27
-453 -37 -596 -19 -291 35 -543 126 -772 277 -125 83 -167 117 -284 231 -216
211 -359 422 -460 678 -140 356 -164 829 -60 1214 156 576 631 1073 1199 1253
118 38 182 52 315 73 117 18 505 12 618 -10z"/>
<path d="M10064 6420 c-625 -42 -1192 -309 -1640 -772 -530 -547 -770 -1188
-725 -1932 34 -566 192 -1006 504 -1404 103 -132 271 -302 407 -412 129 -105
371 -267 508 -340 56 -29 99 -57 94 -61 -25 -23 -379 -144 -608 -208 -984
-276 -2445 -361 -3789 -220 -1511 157 -3045 581 -4601 1270 -111 49 -205 89
-208 89 -3 0 -5 -244 -4 -542 l3 -542 165 -74 c1571 -703 3119 -1120 4595
-1236 763 -61 1688 -40 2530 55 1512 171 2818 594 3857 1250 316 200 572 402
808 639 584 584 863 1251 836 2000 -24 686 -280 1256 -784 1742 -442 425 -961
656 -1569 698 -163 11 -214 11 -379 0z m382 -671 c350 -35 666 -158 929 -364
419 -327 672 -764 735 -1270 17 -133 14 -411 -5 -540 -82 -562 -395 -1023
-899 -1325 -504 -302 -1208 -330 -1754 -70 -201 96 -379 228 -557 411 -304
315 -464 644 -516 1062 -15 124 -7 441 15 555 71 383 222 679 489 958 123 129
218 209 359 301 340 223 774 325 1204 282z"/>
</g>
</svg>
