<?xml version="1.0" standalone="no"?>
<!DOCTYPE svg PUBLIC "-//W3C//DTD SVG 20010904//EN"
 "http://www.w3.org/TR/2001/REC-SVG-20010904/DTD/svg10.dtd">
<svg version="1.0" xmlns="http://www.w3.org/2000/svg"
 width="1280.000000pt" height="1221.000000pt" viewBox="0 0 1280.000000 1221.000000"
 preserveAspectRatio="xMidYMid meet">
<metadata>
Created by potrace 1.15, written by Peter Selinger 2001-2017
</metadata>
<g transform="translate(0.000000,1221.000000) scale(0.100000,-0.100000)"
fill="#000000" stroke="none">
<path d="M5765 12114 c-264 -51 -555 -108 -647 -125 l-167 -32 -89 -111 c-812
-1008 -1397 -2281 -1762 -3839 -18 -76 -34 -137 -35 -135 -2 2 -22 107 -45
233 -202 1119 -426 2019 -655 2630 -70 185 -170 412 -223 501 -258 441 -656
671 -1232 714 -74 5 -309 10 -522 10 l-388 0 0 -410 0 -410 130 0 c455 0 782
-119 1048 -383 246 -242 376 -502 552 -1097 239 -815 537 -2362 649 -3380 42
-382 54 -561 60 -945 l6 -390 495 0 495 0 6 480 c9 655 44 985 165 1568 239
1146 761 2501 1322 3437 151 250 430 648 565 805 l34 39 21 -39 c37 -74 120
-311 172 -489 136 -472 254 -1079 359 -1841 46 -334 242 -1806 316 -2373 111
-857 174 -1251 241 -1499 55 -205 178 -494 340 -796 l96 -179 -62 -181 c-423
-1227 -817 -2101 -1112 -2464 -217 -267 -553 -436 -1038 -523 -230 -41 -373
-51 -792 -57 l-408 -6 0 -414 0 -415 643 5 c498 3 674 8 787 21 604 67 1011
214 1331 483 364 305 764 1022 1260 2256 70 176 130 322 134 325 3 3 54 -42
113 -100 556 -547 1215 -873 1962 -969 166 -22 665 -19 805 4 534 89 947 299
1329 675 421 415 658 878 748 1467 26 169 31 571 10 720 -68 483 -229 850
-528 1205 -219 260 -509 491 -804 640 -367 184 -730 259 -1199 247 -385 -10
-697 -80 -1027 -229 -583 -264 -1111 -799 -1495 -1515 -24 -46 -46 -83 -49
-83 -9 0 -87 298 -125 475 -66 310 -112 614 -195 1295 -60 491 -161 1185 -330
2275 -144 927 -321 1738 -512 2340 -100 317 -239 676 -261 674 -7 -1 -228 -43
-492 -95z m4750 -5894 c385 -43 684 -187 955 -459 264 -266 409 -540 476 -901
25 -132 25 -492 1 -635 -64 -370 -192 -643 -426 -911 -341 -391 -827 -594
-1366 -571 -467 20 -910 187 -1370 516 -202 144 -472 383 -649 575 l-99 107
43 112 c153 403 348 798 537 1087 272 415 572 706 914 889 293 156 659 227
984 191z"/>
</g>
</svg>
