<?xml version="1.0" standalone="no"?>
<!DOCTYPE svg PUBLIC "-//W3C//DTD SVG 20010904//EN"
 "http://www.w3.org/TR/2001/REC-SVG-20010904/DTD/svg10.dtd">
<svg version="1.0" xmlns="http://www.w3.org/2000/svg"
 width="1000.000000pt" height="1280.000000pt" viewBox="0 0 1000.000000 1280.000000"
 preserveAspectRatio="xMidYMid meet">
<metadata>
Created by potrace 1.15, written by Peter Selinger 2001-2017
</metadata>
<g transform="translate(0.000000,1280.000000) scale(0.100000,-0.100000)"
fill="#000000" stroke="none">
<path d="M5555 12794 c-689 -45 -1303 -253 -1795 -607 -642 -462 -1054 -1078
-1199 -1792 -45 -220 -55 -339 -56 -625 0 -279 7 -369 46 -600 79 -468 281
-1046 560 -1601 33 -67 59 -123 57 -125 -2 -1 -53 10 -113 27 -281 76 -550
105 -807 89 -496 -32 -919 -195 -1308 -506 -110 -88 -327 -305 -413 -414 -370
-464 -546 -1003 -524 -1605 14 -377 89 -690 237 -993 119 -244 252 -433 450
-636 196 -202 348 -322 560 -444 534 -306 1221 -388 1859 -222 792 207 1528
940 1726 1720 139 547 89 961 -209 1714 -114 289 -185 446 -451 1001 -95 198
-201 423 -235 500 -275 621 -439 1192 -490 1700 -17 163 -14 507 5 658 83 676
396 1212 915 1569 441 303 987 441 1618 408 598 -32 1067 -203 1472 -539 123
-102 267 -253 364 -381 279 -370 432 -773 498 -1315 19 -157 16 -614 -5 -760
-54 -365 -136 -692 -272 -1080 -146 -416 -252 -658 -745 -1710 -386 -824 -497
-1066 -645 -1410 -438 -1018 -691 -1812 -782 -2445 -26 -189 -24 -573 5 -733
78 -428 273 -788 586 -1084 339 -321 748 -501 1236 -544 515 -45 1029 98 1576
438 194 120 480 340 671 513 l53 48 -275 301 -276 301 -87 -76 c-375 -325
-777 -555 -1112 -638 -266 -65 -540 -50 -768 42 -285 117 -534 391 -635 703
-53 160 -62 230 -62 449 1 184 4 218 28 335 79 372 218 791 472 1425 230 571
326 787 1110 2505 714 1563 831 1937 876 2785 18 346 -1 707 -55 1021 -171
1004 -756 1808 -1641 2255 -383 193 -773 304 -1265 359 -139 15 -621 28 -755
19z m-3000 -5935 c378 -32 677 -155 967 -398 306 -256 506 -607 585 -1026 20
-110 28 -418 14 -541 -52 -443 -246 -813 -581 -1111 -289 -257 -608 -394 -988
-422 -370 -29 -725 54 -1030 240 -259 159 -516 446 -651 729 -164 345 -214
768 -135 1160 119 592 572 1105 1144 1294 214 71 439 96 675 75z"/>
</g>
</svg>
