<?xml version="1.0" standalone="no"?>
<!DOCTYPE svg PUBLIC "-//W3C//DTD SVG 20010904//EN"
 "http://www.w3.org/TR/2001/REC-SVG-20010904/DTD/svg10.dtd">
<svg version="1.0" xmlns="http://www.w3.org/2000/svg"
 width="1280.000000pt" height="1069.000000pt" viewBox="0 0 1280.000000 1069.000000"
 preserveAspectRatio="xMidYMid meet">
<metadata>
Created by potrace 1.15, written by Peter Selinger 2001-2017
</metadata>
<g transform="translate(0.000000,1069.000000) scale(0.100000,-0.100000)"
fill="#000000" stroke="none">
<path d="M6105 10679 c-886 -68 -1632 -394 -2295 -1001 -238 -218 -468 -481
-628 -719 -333 -497 -513 -993 -584 -1614 -17 -145 -16 -592 0 -715 36 -265
90 -483 172 -700 142 -377 397 -776 697 -1091 40 -42 73 -79 73 -83 0 -3 -796
-6 -1770 -6 l-1770 0 0 -595 0 -595 2530 0 2530 0 0 554 0 554 -127 90 c-424
302 -726 645 -914 1037 -173 362 -242 679 -242 1120 -1 664 212 1203 676 1714
462 509 1051 805 1710 860 696 59 1323 -127 1860 -551 121 -96 365 -338 461
-458 226 -283 390 -609 472 -940 51 -206 65 -321 71 -570 11 -457 -62 -805
-247 -1185 -190 -388 -490 -726 -911 -1026 l-129 -91 0 -554 0 -554 2530 0
2530 0 0 595 0 595 -1771 0 -1770 0 93 103 c167 183 277 324 395 507 251 390
394 781 458 1253 26 193 21 594 -10 842 -101 788 -452 1483 -1050 2080 -644
643 -1372 1013 -2206 1120 -267 34 -589 43 -834 24z"/>
<path d="M0 590 l0 -590 6400 0 6400 0 0 590 0 590 -6400 0 -6400 0 0 -590z"/>
</g>
</svg>
