<?xml version="1.0" standalone="no"?>
<!DOCTYPE svg PUBLIC "-//W3C//DTD SVG 20010904//EN"
 "http://www.w3.org/TR/2001/REC-SVG-20010904/DTD/svg10.dtd">
<svg version="1.0" xmlns="http://www.w3.org/2000/svg"
 width="1031.000000pt" height="1280.000000pt" viewBox="0 0 1031.000000 1280.000000"
 preserveAspectRatio="xMidYMid meet">
<metadata>
Created by potrace 1.15, written by Peter Selinger 2001-2017
</metadata>
<g transform="translate(0.000000,1280.000000) scale(0.100000,-0.100000)"
fill="#000000" stroke="none">
<path d="M87 12703 c50 -54 150 -168 223 -253 1188 -1387 1927 -2795 2230
-4250 65 -311 119 -702 136 -972 l7 -118 -1297 0 -1296 0 0 -455 0 -455 1297
0 1296 0 -6 -252 c-44 -1746 -669 -3433 -1841 -4968 -240 -314 -557 -687 -775
-912 l-65 -68 667 0 667 0 96 112 c1269 1481 2187 3466 2414 5218 26 205 47
463 56 688 l7 182 1252 0 1252 0 7 -182 c36 -934 243 -1863 638 -2853 440
-1104 1037 -2103 1790 -2996 l142 -169 665 0 665 0 -65 68 c-218 225 -535 598
-775 912 -1172 1535 -1797 3222 -1841 4968 l-6 252 1296 0 1297 0 0 455 0 455
-1296 0 -1297 0 7 118 c17 270 71 661 136 972 303 1455 1042 2863 2230 4250
73 85 173 199 223 253 l89 97 -629 0 -630 0 -80 -87 c-1253 -1371 -2056 -2914
-2412 -4636 -51 -245 -115 -646 -136 -852 -3 -33 -9 -72 -11 -87 l-6 -28
-1253 0 -1254 0 -5 33 c-3 17 -15 111 -26 207 -238 1973 -1100 3801 -2528
5358 l-84 92 -630 0 -630 0 89 -97z"/>
</g>
</svg>
