<?xml version="1.0" standalone="no"?>
<!DOCTYPE svg PUBLIC "-//W3C//DTD SVG 20010904//EN"
 "http://www.w3.org/TR/2001/REC-SVG-20010904/DTD/svg10.dtd">
<svg version="1.0" xmlns="http://www.w3.org/2000/svg"
 width="1280.000000pt" height="1280.000000pt" viewBox="0 0 1280.000000 1280.000000"
 preserveAspectRatio="xMidYMid meet">
<metadata>
Created by potrace 1.15, written by Peter Selinger 2001-2017
</metadata>
<g transform="translate(0.000000,1280.000000) scale(0.100000,-0.100000)"
fill="#000000" stroke="none">
<path d="M5955 12768 c-11 -66 -173 -1114 -177 -1143 -3 -26 1 -30 22 -33 47
-6 3535 -494 4015 -562 153 -22 290 -40 302 -40 13 0 23 -3 23 -7 0 -5 -1236
-1242 -2747 -2750 l-2748 -2741 -1291 1290 -1292 1291 -369 -374 c-203 -206
-393 -400 -423 -432 l-54 -58 440 -442 c241 -243 820 -825 1286 -1292 l848
-850 -1895 -1895 -1895 -1895 417 -417 418 -418 365 363 c201 200 1055 1050
1899 1890 l1534 1526 1290 -1295 1291 -1295 430 430 431 431 -1289 1289 c-709
709 -1287 1293 -1285 1299 2 6 1001 1011 2219 2234 1218 1222 2448 2458 2735
2746 416 418 521 519 527 505 4 -10 16 -88 28 -173 11 -85 47 -344 80 -575 33
-231 105 -742 160 -1135 55 -393 109 -776 120 -850 66 -455 220 -1560 220
-1576 0 -43 13 -48 92 -36 40 7 246 39 458 72 467 73 654 103 657 105 2 1 -47
354 -107 786 -61 431 -140 993 -175 1249 -36 256 -70 494 -75 530 -5 36 -41
292 -80 570 -39 278 -75 534 -80 570 -5 36 -41 292 -80 570 -39 278 -75 534
-80 570 -5 36 -41 292 -80 570 -39 278 -73 524 -76 547 -7 49 14 42 -244 78
-185 26 -1213 169 -2967 415 -511 71 -1252 175 -1648 230 -396 55 -814 114
-930 130 -115 17 -211 30 -212 30 -1 0 -5 -15 -8 -32z"/>
</g>
</svg>
