<?xml version="1.0" standalone="no"?>
<!DOCTYPE svg PUBLIC "-//W3C//DTD SVG 20010904//EN"
 "http://www.w3.org/TR/2001/REC-SVG-20010904/DTD/svg10.dtd">
<svg version="1.0" xmlns="http://www.w3.org/2000/svg"
 width="1164.000000pt" height="1280.000000pt" viewBox="0 0 1164.000000 1280.000000"
 preserveAspectRatio="xMidYMid meet">
<metadata>
Created by potrace 1.15, written by Peter Selinger 2001-2017
</metadata>
<g transform="translate(0.000000,1280.000000) scale(0.100000,-0.100000)"
fill="#000000" stroke="none">
<path d="M3440 12705 c-250 -52 -460 -95 -466 -97 -26 -7 -278 -327 -416 -528
-252 -365 -505 -834 -689 -1274 -30 -71 -56 -121 -60 -114 -3 7 -14 54 -23
103 -56 289 -187 724 -306 1010 -80 194 -226 483 -333 660 l-85 140 -531 3
-531 2 81 -112 c450 -625 693 -1419 739 -2413 6 -127 10 -1624 10 -3767 l0
-3558 490 0 490 0 0 3084 0 3084 54 184 c309 1041 758 1909 1370 2646 101 121
112 131 124 115 37 -49 129 -260 177 -405 114 -348 177 -722 227 -1363 8 -110
12 -1115 15 -3747 l4 -3598 489 0 490 0 0 2971 0 2971 46 186 c252 1027 655
1912 1205 2649 92 122 278 353 284 353 10 0 110 -190 148 -281 142 -334 222
-727 268 -1324 9 -108 14 -1110 19 -3560 5 -1876 11 -3430 14 -3455 4 -25 14
-106 22 -180 46 -405 151 -786 296 -1074 97 -194 213 -350 365 -497 304 -291
692 -457 1258 -535 98 -14 236 -17 758 -21 l637 -5 0 -474 c0 -261 3 -474 8
-474 12 0 1541 1334 1541 1345 -1 6 -348 324 -772 708 l-772 698 -3 -492 -2
-491 -478 5 c-428 4 -491 6 -615 26 -534 84 -859 272 -1061 614 -96 162 -147
323 -171 537 -38 351 -39 365 -45 4055 -7 3885 -3 3620 -56 3980 -87 603 -305
1165 -647 1673 -76 113 -93 133 -111 128 -11 -2 -230 -46 -486 -96 l-465 -92
-107 -137 c-470 -601 -816 -1200 -1034 -1791 l-39 -105 -7 40 c-4 22 -17 101
-28 175 -92 590 -260 1122 -481 1521 -104 190 -316 490 -343 488 -6 0 -216
-43 -466 -94z"/>
</g>
</svg>
