<?xml version="1.0" standalone="no"?>
<!DOCTYPE svg PUBLIC "-//W3C//DTD SVG 20010904//EN"
 "http://www.w3.org/TR/2001/REC-SVG-20010904/DTD/svg10.dtd">
<svg version="1.0" xmlns="http://www.w3.org/2000/svg"
 width="1225.000000pt" height="1280.000000pt" viewBox="0 0 1225.000000 1280.000000"
 preserveAspectRatio="xMidYMid meet">
<metadata>
Created by potrace 1.15, written by Peter Selinger 2001-2017
</metadata>
<g transform="translate(0.000000,1280.000000) scale(0.100000,-0.100000)"
fill="#000000" stroke="none">
<path d="M0 12425 l0 -375 154 0 c179 0 287 -16 433 -65 357 -119 683 -391
994 -827 111 -155 216 -332 462 -774 258 -464 314 -563 415 -729 240 -394 482
-719 690 -923 248 -244 577 -458 947 -617 61 -26 114 -51 118 -55 5 -4 -22
-25 -60 -45 -426 -237 -871 -587 -1202 -945 -629 -682 -1007 -1500 -1101
-2385 -28 -262 -23 -685 11 -965 109 -889 506 -1687 1184 -2379 762 -779 1615
-1208 2615 -1316 315 -34 706 -30 1025 11 926 119 1739 527 2452 1231 643 635
1040 1353 1202 2171 35 177 60 390 71 615 45 915 -197 1771 -713 2520 -383
555 -882 1013 -1512 1389 -71 43 -137 82 -145 87 -12 7 -4 14 35 31 283 124
426 200 615 324 362 239 607 497 927 976 163 246 257 405 631 1076 228 409
288 511 400 672 326 470 686 763 1074 876 119 34 216 46 384 46 l144 0 0 375
0 375 -292 0 c-161 0 -335 -5 -386 -10 -705 -74 -1357 -558 -1949 -1446 -121
-181 -180 -280 -551 -919 -373 -645 -442 -755 -618 -990 -491 -658 -989 -970
-1725 -1080 -251 -37 -554 -51 -821 -36 -968 53 -1527 349 -2112 1118 -169
223 -294 424 -628 1013 -149 261 -300 525 -336 585 -651 1087 -1368 1672
-2153 1755 -52 5 -226 10 -386 10 l-293 0 0 -375z m6570 -4970 c700 -89 1297
-368 1794 -835 617 -581 938 -1205 1038 -2020 19 -157 16 -621 -6 -785 -90
-688 -358 -1248 -842 -1762 -684 -727 -1534 -1079 -2534 -1050 -811 24 -1479
284 -2077 810 -626 550 -985 1210 -1089 2002 -22 164 -25 628 -6 785 73 598
269 1096 606 1544 109 144 161 204 314 359 568 576 1245 894 2057 967 148 13
598 4 745 -15z"/>
</g>
</svg>
