<?xml version="1.0" standalone="no"?>
<!DOCTYPE svg PUBLIC "-//W3C//DTD SVG 20010904//EN"
 "http://www.w3.org/TR/2001/REC-SVG-20010904/DTD/svg10.dtd">
<svg version="1.0" xmlns="http://www.w3.org/2000/svg"
 width="1055.000000pt" height="1280.000000pt" viewBox="0 0 1055.000000 1280.000000"
 preserveAspectRatio="xMidYMid meet">
<metadata>
Created by potrace 1.15, written by Peter Selinger 2001-2017
</metadata>
<g transform="translate(0.000000,1280.000000) scale(0.100000,-0.100000)"
fill="#000000" stroke="none">
<path d="M3470 12709 l-475 -90 -43 -47 c-137 -148 -366 -459 -519 -702 -174
-279 -406 -729 -544 -1057 -35 -84 -67 -153 -70 -153 -3 0 -16 57 -29 127
-117 647 -375 1308 -687 1758 l-48 70 -523 3 c-315 1 -522 -1 -522 -7 0 -5 31
-58 69 -118 350 -552 579 -1164 681 -1823 58 -375 54 -75 57 -4217 l3 -3793
500 0 500 0 0 3125 0 3124 55 173 c169 537 416 1123 660 1563 249 450 483 794
821 1203 l20 25 31 -54 c214 -382 348 -1027 393 -1889 6 -124 10 -1486 10
-3732 l0 -3538 505 0 505 0 0 3006 0 3005 31 122 c268 1067 703 2030 1228
2717 84 109 293 359 302 360 9 0 134 -267 167 -360 142 -395 224 -864 252
-1450 6 -137 10 -1385 10 -3431 0 -2011 4 -3292 10 -3420 13 -257 33 -480 67
-728 l26 -193 -24 -19 c-36 -27 -398 -210 -519 -262 -438 -189 -878 -325
-1465 -455 l-80 -18 -3 -428 -2 -428 27 6 c16 3 93 17 173 32 469 84 926 207
1319 354 222 83 349 139 566 249 105 53 194 96 198 96 5 0 28 -49 51 -110 177
-461 412 -906 643 -1217 l65 -88 585 0 c467 0 583 3 576 13 -410 517 -654 904
-826 1307 -81 191 -162 465 -182 615 l-6 50 163 147 c207 186 617 600 775 785
964 1123 1462 2265 1584 3633 17 191 18 792 1 975 -95 1038 -401 1942 -969
2862 l-75 121 -92 -33 c-50 -18 -236 -87 -412 -151 l-321 -118 -75 -116 c-243
-372 -481 -867 -701 -1457 l-72 -192 -6 1092 c-5 1041 -6 1100 -27 1266 -89
710 -310 1302 -705 1886 -52 77 -80 110 -93 109 -10 0 -228 -40 -484 -89
l-466 -88 -109 -135 c-375 -460 -696 -972 -906 -1447 -67 -153 -176 -436 -185
-485 -4 -16 -10 -30 -13 -30 -4 0 -13 46 -20 103 -17 140 -64 392 -106 571
-134 575 -358 1095 -643 1491 -44 61 -85 111 -93 111 -8 1 -228 -38 -489 -87z
m5596 -3476 c106 -233 229 -579 304 -858 191 -711 231 -1505 114 -2260 -175
-1131 -702 -2170 -1558 -3072 l-116 -123 0 1979 0 1978 74 219 c243 720 529
1328 859 1824 64 97 278 390 285 390 1 0 18 -35 38 -77z"/>
</g>
</svg>
